<?xml version="1.0" encoding="UTF-8"?>
<!DOCTYPE svg PUBLIC "-//W3C//DTD SVG 1.1//EN" "http://www.w3.org/Graphics/SVG/1.1/DTD/svg11.dtd">
<!-- Creator: CorelDRAW 2018 (64-Bit) -->
<svg xmlns="http://www.w3.org/2000/svg" xml:space="preserve" width="24.6364cm" height="17.6902cm" version="1.1" shape-rendering="geometricPrecision" text-rendering="geometricPrecision" image-rendering="optimizeQuality" fill-rule="evenodd" clip-rule="evenodd"
viewBox="0 0 40085.44 28783.46"
 xmlns:xlink="http://www.w3.org/1999/xlink">
 <g id="Layer_x0020_1">
  <metadata id="CorelCorpID_0Corel-Layer"/>
  <path fill="black" d="M18253.15 16418.42c-1409.82,0 45.79,-3788.39 1090.6,-3788.39 519.5,0 688.79,162.77 688.79,803.6 0,501.96 -349.9,1452.17 -534.3,1819.08 -224.67,447.02 -627.09,1165.71 -1245.09,1165.71zm-14235.17 -5510.39c199.14,-133.34 735.49,-853.39 861,-1090.58 18.89,-145.77 -1722.1,-2749.71 -1948.5,-3102.7 -65.12,-101.55 -109.8,-184.51 -175.32,-283.88 -143.56,-217.7 -537.6,-1019.6 -803.58,-1090.62 -93.31,201.76 324.33,1099.86 426.56,1352.84l1639.84 4214.94zm31971.73 2812.61c-364.4,0 -1039.15,-80.17 -1340.96,36.63 -244.5,94.63 -495.84,641.53 -495.84,939.17 0,369.35 1054.92,229.6 1435.01,229.6 -171.82,737.44 -247.3,353.4 -229.61,1147.99 528.04,123.02 1535.15,57.4 2123.8,57.4 565.92,0 608.22,-798.2 803.6,-1205.39 999.32,0 1470.09,174.28 1678.32,-560.64 219.05,-773.11 313.52,-644.75 -1276.51,-644.75 36.04,-433.19 581.1,-1262.81 -114.81,-1262.81l-1721.99 0c-557.6,0 -747.66,776.27 -861,1262.81zm-2008.99 -3055.17c187.18,-238.61 215.1,-493.33 311.6,-938.22 80.65,-371.79 155.83,-640.45 229.29,-1033.49 452.25,-2419.41 865.12,-6617.15 -1254.63,-8092.77 -400.26,-278.62 -1269.48,-601.57 -1924.63,-600.96 -1886.08,1.74 -2407.99,281.7 -3943.14,1112.11 -1189.64,643.53 -2783.79,2158.98 -3765.98,3179.42 -1112.52,1155.83 -3206.28,3926.12 -4106.04,5364.93 -253.24,404.95 -1371.7,2079.62 -1446.23,2399.56 285.68,-23.77 211.59,-90.37 519.46,-628.53l1341.55 -2102.45c666.01,-914.89 1238.36,-1778.6 1971.99,-2619.99 530.12,-608.01 1688.44,-1964.62 2218.2,-2373.78 635.41,-490.78 1051.57,-950.44 1915.34,-1528.66 1133.52,-758.82 2902.54,-1595.76 4313.8,-1477.9 1558.13,130.13 2337.89,652.57 3012.37,1637.77 291.12,425.25 529.68,1047.96 685.34,1610.67 80.98,292.79 138.64,644.42 186.46,961.52l81.52 1066.49c65.36,2185.22 -377.16,2917.56 -444.16,3850.98 -17.62,245.48 92.94,6.09 -16.92,203.45 -157.42,157.47 -367.09,828.07 -451.79,1063.43 -100.1,278.17 -335.9,747.17 -489.91,1002.48 -988.18,1637.87 -1656.19,1131.18 -2734.59,485.23 -313,-187.47 -597.4,-377.16 -933.85,-558.55 -450.12,-242.66 -1651.78,-706.94 -2417.67,-502.39 -578.75,154.56 -1157.6,1049.4 -1476.51,1508.29 -632.3,909.86 -2071.42,4094.62 -2394.95,5067.03 -31.84,95.71 -532.25,1319.34 -35.55,838.65l1058.66 -1939.34c200.33,-334.76 645.97,-1041.07 906.87,-1331.72 503.65,-561.05 1035.12,-1186.13 1955.54,-892.52l760.6 330c95.92,55.83 151.69,76.91 260.02,141.78 1710.37,1024.22 2159.22,2016.46 3310.92,910.42 1171.04,-1124.59 2166.72,-3971.09 2689.62,-5518.69 69.18,-204.74 186.38,-400.56 107.4,-594.24zm-26863.14 4834.57c0,1404.51 1599.89,1434.99 2870,1434.99l2697.8 0c233.27,0 229.6,-328.41 229.6,-574 -459.26,-106.98 -1381.9,0.52 -1738.16,-557.83 -322.16,-504.95 -47.8,-1324.85 154.2,-1829.72 127.06,-317.51 341.8,-721.97 562.24,-930.15 326,-307.86 570.65,-302.04 1119.48,-372.93 625.82,-80.83 876.3,153.65 935.44,-556.95 -1688.9,0 -3404.3,-156.22 -4771.67,336.92 -1209.39,436.19 -2058.93,1917.19 -2058.93,3049.67zm-7117.58 1033.2c0,286.5 273.51,401.79 574,401.79l3271.79 0c243.28,0 450.85,-85.83 598.39,-205.21 311.6,-252.15 580.2,-1352.14 714.47,-1753.72 121.72,-364.01 810.94,-2292.32 810.94,-2518.27 0,-219.43 -169.95,-344.39 -401.81,-344.39l-2984.79 0c-736.21,0 -935.88,696.7 -1221.87,1361.12l-1361.12 3058.67zm15899.76 311.39l114.19 36.67 -606.58 1857.33c-585.2,2067.83 -913.1,4545.01 -525.86,6676.62 593.67,3267.87 3278.54,4096.98 6165.42,2751.35 977.88,-455.81 1211.56,-639.79 1996.22,-1160.78l3059.55 -2623.04 3384.79 -4191.98c115.62,-153.04 155.58,-229.47 245.46,-385.94l163.9 -237.91c7.03,-9.89 16.92,-23.54 23.8,-33.58 37.41,-54.43 28.18,-44.42 67.04,-105.17 178.62,-279.34 307.21,-507.75 480.48,-782.32 112.27,-177.91 424.13,-619.37 470.36,-792.44 -133.42,11.1 -152.15,-8.14 -307.73,208.87 -107.62,150.11 -127.29,215.73 -211.26,362.73 -511.02,894.39 -1731.09,2471.86 -2444.63,3295.38l-466.47 566.71c-100.68,113.67 -184.8,171.58 -283.97,290.03 -687.48,821.09 -959.07,983.12 -1695.42,1633.77 -401.89,355.11 -375.45,379.32 -929.05,792.94 -227.68,170.11 -396.24,306.56 -622.29,468.32 -474.65,339.65 -1713.53,1084.6 -2173.12,1270.87 -2632.34,1066.96 -4933.77,766.67 -5912.58,-1936.49 -718.15,-1983.25 -424.95,-4926.71 42.21,-6976.07 77.74,-341 208.12,-586.06 186.38,-952.87l1673.36 57.4c1690.91,0 2824.06,81.34 4317.29,-906.09 1093.03,-722.8 1879.1,-2651.67 1061.54,-3439.54 -649.84,-626.25 -3812.58,-472.98 -4806.18,-477.3 -3388.64,-14.73 -4824.35,3195.56 -3830.28,4292.18 279.96,308.82 838.45,353.74 1363.43,440.35z"/>
 </g>
</svg>
